<svg width="100" height="100" viewBox="0 0 100 100" fill="none" xmlns="http://www.w3.org/2000/svg">
<circle cx="50" cy="50" r="50" fill="url(#paint0_linear_106_4)"/>
<path d="M50 26C36.7467 26 26 36.7467 26 50C26 63.2533 36.7467 74 50 74C52.2133 74 54 72.2133 54 70C54 68.96 53.6 68.0267 52.96 67.3067C52.3467 66.6133 51.9467 65.68 51.9467 64.6667C51.9467 62.4533 53.7333 60.6667 55.9467 60.6667H60.6667C68.0267 60.6667 74 54.6933 74 47.3333C74 35.5467 63.2533 26 50 26ZM35.3333 50C33.12 50 31.3333 48.2133 31.3333 46C31.3333 43.7867 33.12 42 35.3333 42C37.5467 42 39.3333 43.7867 39.3333 46C39.3333 48.2133 37.5467 50 35.3333 50ZM43.3333 39.3333C41.12 39.3333 39.3333 37.5467 39.3333 35.3333C39.3333 33.12 41.12 31.3333 43.3333 31.3333C45.5467 31.3333 47.3333 33.12 47.3333 35.3333C47.3333 37.5467 45.5467 39.3333 43.3333 39.3333ZM56.6667 39.3333C54.4533 39.3333 52.6667 37.5467 52.6667 35.3333C52.6667 33.12 54.4533 31.3333 56.6667 31.3333C58.88 31.3333 60.6667 33.12 60.6667 35.3333C60.6667 37.5467 58.88 39.3333 56.6667 39.3333ZM64.6667 50C62.4533 50 60.6667 48.2133 60.6667 46C60.6667 43.7867 62.4533 42 64.6667 42C66.88 42 68.6667 43.7867 68.6667 46C68.6667 48.2133 66.88 50 64.6667 50Z" fill="white"/>
<defs>
<linearGradient id="paint0_linear_106_4" x1="16" y1="13.5" x2="75" y2="87" gradientUnits="userSpaceOnUse">
<stop stop-color="#C98FEA"/>
<stop offset="1" stop-color="#FFB6B6"/>
</linearGradient>
</defs>
</svg>
