<svg width="100" height="100" viewBox="0 0 100 100" fill="none" xmlns="http://www.w3.org/2000/svg">
<circle cx="50" cy="50" r="50" fill="url(#paint0_linear_106_3)"/>
<path d="M30 68H34C35.1 68 36 67.1 36 66V48C36 46.9 35.1 46 34 46H30V68ZM69.66 53.76C69.88 53.26 70 52.72 70 52.16V50C70 47.8 68.2 46 66 46H55L56.84 36.7C56.94 36.26 56.88 35.78 56.68 35.38C56.22 34.48 55.64 33.66 54.92 32.94L54 32L41.18 44.82C40.42 45.58 40 46.6 40 47.66V63.34C40 65.9 42.1 68 44.68 68H60.9C62.3 68 63.62 67.26 64.34 66.06L69.66 53.76Z" fill="white"/>
<defs>
<linearGradient id="paint0_linear_106_3" x1="16" y1="13.5" x2="75" y2="87" gradientUnits="userSpaceOnUse">
<stop stop-color="#5B4EC6"/>
<stop offset="1" stop-color="#80E9FF"/>
</linearGradient>
</defs>
</svg>
