<svg width="100" height="100" viewBox="0 0 100 100" fill="none" xmlns="http://www.w3.org/2000/svg">
<circle cx="50" cy="50" r="50" fill="url(#paint0_linear_106_2)"/>
<path d="M70.75 33.25V32.2083C70.75 29.3333 68.4167 27 65.5417 27C62.6667 27 60.3333 29.3333 60.3333 32.2083V33.25C59.1875 33.25 58.25 34.1875 58.25 35.3333V43.6667C58.25 44.8125 59.1875 45.75 60.3333 45.75H70.75C71.8958 45.75 72.8333 44.8125 72.8333 43.6667V35.3333C72.8333 34.1875 71.8958 33.25 70.75 33.25ZM69.0833 33.25H62V32.2083C62 30.25 63.5833 28.6667 65.5417 28.6667C67.5 28.6667 69.0833 30.25 69.0833 32.2083V33.25ZM64.3333 49.9167C64.4167 50.6042 64.5 51.2917 64.5 52C64.5 56.3333 62.8333 60.2708 60.125 63.2292C59.5833 61.5417 58.0417 60.3333 56.1667 60.3333H54.0833V54.0833C54.0833 52.9375 53.1458 52 52 52H39.5V47.8333H43.6667C44.8125 47.8333 45.75 46.8958 45.75 45.75V41.5833H49.9167C52.2083 41.5833 54.0833 39.7083 54.0833 37.4167V32.125C52.1042 31.5 50.0208 31.1667 47.8333 31.1667C36.3333 31.1667 27 40.5 27 52C27 63.5 36.3333 72.8333 47.8333 72.8333C59.3333 72.8333 68.6667 63.5 68.6667 52C68.6667 51.2917 68.625 50.6042 68.5625 49.9167H64.3333ZM45.75 68.5208C37.5208 67.5 31.1667 60.5 31.1667 52C31.1667 50.7083 31.3333 49.4792 31.6042 48.2708L41.5833 58.25V60.3333C41.5833 62.625 43.4583 64.5 45.75 64.5V68.5208Z" fill="white"/>
<defs>
<linearGradient id="paint0_linear_106_2" x1="16" y1="13.5" x2="75" y2="87" gradientUnits="userSpaceOnUse">
<stop stop-color="#0D9898"/>
<stop offset="1" stop-color="#C6FFF5"/>
</linearGradient>
</defs>
</svg>
