<svg width="100" height="100" viewBox="0 0 100 100" fill="none" xmlns="http://www.w3.org/2000/svg">
<circle cx="50" cy="50" r="50" fill="url(#paint0_linear_106_5)"/>
<path d="M68.6178 42.2989L60.6187 46.0317L55.4416 40.8546V37.7438L60.6187 32.5667L68.6178 36.2996C69.4621 36.6995 70.4398 36.3218 70.8397 35.4997C71.2397 34.6553 70.862 33.6776 70.0398 33.2777L61.3297 29.2115C60.4854 28.8116 59.4855 28.9893 58.8189 29.6559L54.9527 33.5221C54.5528 32.9888 53.9306 32.6333 53.2196 32.6333C51.9975 32.6333 50.9976 33.6332 50.9976 34.8553V37.0772H43.9318C42.9986 34.4998 40.5544 32.6333 37.6659 32.6333C33.9774 32.6333 31 35.6108 31 39.2992C31 41.7434 32.3332 43.8542 34.2885 45.0319L40.0656 63.7408H37.6659C35.2217 63.7408 33.222 65.7405 33.222 68.1847V70.4066H62.1074V68.1847C62.1074 65.7405 60.1077 63.7408 57.6635 63.7408H54.0639L43.0208 43.2321C43.3985 42.6988 43.7096 42.1433 43.9318 41.5212H50.9976V43.7431C50.9976 44.9652 51.9975 45.9651 53.2196 45.9651C53.9306 45.9651 54.5528 45.6096 54.9527 45.0763L58.8189 48.9425C59.4855 49.6091 60.4854 49.7869 61.3297 49.3869L70.0398 45.3207C70.8842 44.9208 71.2397 43.9431 70.8397 43.0988C70.4398 42.2766 69.4621 41.8989 68.6178 42.2989ZM37.6659 41.5212C36.4438 41.5212 35.4439 40.5213 35.4439 39.2992C35.4439 38.0771 36.4438 37.0772 37.6659 37.0772C38.888 37.0772 39.8878 38.0771 39.8878 39.2992C39.8878 40.5213 38.888 41.5212 37.6659 41.5212ZM49.0201 63.7408H44.7095L39.2435 45.9651H39.4657L49.0201 63.7408Z" fill="white"/>
<defs>
<linearGradient id="paint0_linear_106_5" x1="16" y1="13.5" x2="75" y2="87" gradientUnits="userSpaceOnUse">
<stop stop-color="#119FEF"/>
<stop offset="1" stop-color="#D1EFFF"/>
</linearGradient>
</defs>
</svg>
