<svg width="1920" height="952" viewBox="0 0 1920 952" fill="none" xmlns="http://www.w3.org/2000/svg">
<rect width="1920" height="951.567" fill="url(#paint0_linear_130_8)"/>
<path d="M1823.72 208.726C1796.54 230.278 1738.26 294.747 1722.52 380.205C1702.84 487.028 1742.2 700.673 1612.88 751.274C1483.57 801.874 1262.9 789.927 1187.7 740.029C1099.37 681.417 1015.52 619.291 903.778 641.64C777.277 666.94 780.181 681.64 655.696 749.868C582.606 789.927 427.994 775.871 267.76 680.293C139.573 603.83 138.448 523.572 110.337 433.616" stroke="#E6E6E6" stroke-width="5.58937" stroke-dasharray="22.36 22.36"/>
<path d="M118.63 352.796H66.9048C63.3487 352.796 60.4715 355.722 60.4715 359.297L60.4392 398.302C60.4392 401.877 63.3487 404.802 66.9048 404.802H118.63C122.186 404.802 125.095 401.877 125.095 398.302V359.297C125.095 355.722 122.186 352.796 118.63 352.796ZM118.63 365.798L92.7672 382.05L66.9048 365.798V359.297L92.7672 375.549L118.63 359.297V365.798Z" fill="#F7F7F7"/>
<path d="M1849.98 205.712L1857.58 141.962L1806.16 180.412L1823.19 190.275L1849.14 156.569L1832.93 195.898L1849.98 205.712Z" fill="white"/>
<defs>
<linearGradient id="paint0_linear_130_8" x1="-2.1477e-06" y1="393.685" x2="1874.69" y2="-90.6219" gradientUnits="userSpaceOnUse">
<stop offset="0.206554" stop-color="#5B4EC6"/>
<stop offset="1" stop-color="#CB91EB"/>
</linearGradient>
</defs>
</svg>
